<svg width="28" height="28" viewBox="0 0 28 28" fill="none" xmlns="http://www.w3.org/2000/svg">
<circle cx="14" cy="14" r="14" fill="#9044D6"/>
<path d="M19.219 10.2744C19.1467 10.2015 19.0606 10.1437 18.9659 10.1042C18.8711 10.0647 18.7694 10.0444 18.6667 10.0444C18.5641 10.0444 18.4624 10.0647 18.3676 10.1042C18.2728 10.1437 18.1868 10.2015 18.1145 10.2744L12.3201 16.0767L9.88562 13.6344C9.81055 13.5619 9.72193 13.5049 9.62482 13.4666C9.52771 13.4284 9.42402 13.4096 9.31965 13.4114C9.21529 13.4132 9.11231 13.4355 9.01658 13.4772C8.92085 13.5188 8.83425 13.5788 8.76174 13.6539C8.68922 13.729 8.6322 13.8176 8.59393 13.9147C8.55566 14.0118 8.53689 14.1155 8.53869 14.2199C8.5405 14.3242 8.56284 14.4272 8.60445 14.5229C8.64605 14.6187 8.70611 14.7053 8.78118 14.7778L11.7678 17.7644C11.8402 17.8373 11.9262 17.8952 12.021 17.9347C12.1157 17.9742 12.2174 17.9945 12.3201 17.9945C12.4227 17.9945 12.5244 17.9742 12.6192 17.9347C12.714 17.8952 12.8 17.8373 12.8723 17.7644L19.219 11.4178C19.2979 11.3449 19.3609 11.2565 19.404 11.1582C19.4471 11.0598 19.4693 10.9535 19.4693 10.8461C19.4693 10.7387 19.4471 10.6324 19.404 10.5341C19.3609 10.4357 19.2979 10.3473 19.219 10.2744Z" fill="white"/>
</svg>
