<svg width="19" height="22" viewBox="0 0 19 22" fill="none" xmlns="http://www.w3.org/2000/svg">
<path d="M9.01114 0.139526C8.3127 0.153589 7.81114 0.289526 7.47833 0.533276L2.91739 2.97546L0.381452 6.425C-0.152923 7.25 0.226765 8.84375 1.89551 7.82187L3.72364 5.4125C6.04395 3.4114 10.7783 4.32968 8.53302 8.34687C7.43145 10.6719 7.94708 11.8062 9.36739 12.2844L10.0143 10.1094C11.1346 7.5875 13.2252 7.13281 13.1408 5.09843L18.1658 5.45937L18.119 0.205151L9.01114 0.139526ZM6.4752 4.98593C5.65958 4.97187 4.85801 5.30937 4.27676 5.79687L2.44395 8.20625C2.94551 8.60468 3.45176 8.38906 3.95333 7.90625C4.54395 8.20625 5.00333 7.74218 5.37833 6.81406C5.53301 6.18125 5.7627 5.73593 6.4752 4.98593ZM2.74395 9.48593C2.7252 9.48593 2.70176 9.48593 2.68301 9.49062C2.52833 9.52343 2.34552 9.6875 2.22364 10.0625C2.09708 10.4375 2.06895 10.9719 2.18145 11.5437C2.29395 12.1109 2.52833 12.5937 2.79083 12.8937C3.04395 13.1891 3.27833 13.2734 3.43301 13.2406C3.59239 13.2125 3.77051 13.0437 3.89239 12.6734C4.01895 12.2984 4.05176 11.7594 3.93926 11.1922C3.82208 10.6203 3.5877 10.1375 3.32989 9.84218C3.10489 9.57968 2.89864 9.48593 2.74395 9.48593ZM6.61583 14.4922C6.24551 14.4969 5.78145 14.6141 5.32676 14.8344C4.80645 15.0922 4.39864 15.4484 4.17833 15.7766C3.95801 16.1 3.93926 16.3437 4.00958 16.4891C4.07989 16.6297 4.28614 16.7656 4.67989 16.7844C5.07364 16.8078 5.60333 16.7 6.12364 16.4422C6.64395 16.1844 7.05176 15.8328 7.27208 15.5047C7.49239 15.1812 7.51114 14.9328 7.44083 14.7922C7.37051 14.6469 7.16426 14.5156 6.77051 14.4969C6.71895 14.4922 6.67208 14.4922 6.61583 14.4922ZM2.04083 18.9734C1.82051 18.9781 1.61895 19.0109 1.44083 19.0625C1.04239 19.1797 0.812702 19.3906 0.737702 19.6391C0.658015 19.8922 0.737702 20.1922 1.00489 20.5156C1.27676 20.8344 1.73145 21.1391 2.29395 21.3078C2.85176 21.4766 3.39551 21.4719 3.79864 21.35C4.20176 21.2328 4.43145 21.0219 4.50645 20.7734C4.58145 20.5203 4.50645 20.2203 4.23458 19.8969C3.96739 19.5781 3.5127 19.2734 2.9502 19.1047C2.63145 19.0109 2.32208 18.9687 2.04083 18.9734Z" fill="#7A89A8"/>
</svg>
