<svg width="18" height="22" viewBox="0 0 18 22" fill="none" xmlns="http://www.w3.org/2000/svg">
<path fill-rule="evenodd" clip-rule="evenodd" d="M9 0.500002C7.079 0.500002 5.184 0.611002 3.32 0.827002C1.823 1.001 0.75 2.287 0.75 3.757V20.75C0.750029 20.8726 0.780107 20.9933 0.837604 21.1016C0.8951 21.2099 0.97826 21.3024 1.0798 21.3711C1.18135 21.4397 1.29818 21.4825 1.42008 21.4956C1.54197 21.5086 1.66521 21.4916 1.779 21.446L5.25 20.058L8.722 21.446C8.90049 21.5172 9.09951 21.5172 9.278 21.446L12.75 20.058L16.221 21.446C16.3348 21.4916 16.458 21.5086 16.5799 21.4956C16.7018 21.4825 16.8186 21.4397 16.9202 21.3711C17.0217 21.3024 17.1049 21.2099 17.1624 21.1016C17.2199 20.9933 17.25 20.8726 17.25 20.75V3.757C17.25 2.287 16.177 1.001 14.68 0.827002C12.7945 0.608653 10.8981 0.499471 9 0.500002ZM12.53 7.78C12.6625 7.63783 12.7346 7.44978 12.7312 7.25548C12.7277 7.06118 12.649 6.87579 12.5116 6.73838C12.3742 6.60097 12.1888 6.52225 11.9945 6.51883C11.8002 6.5154 11.6122 6.58752 11.47 6.72L5.47 12.72C5.39631 12.7887 5.33721 12.8715 5.29622 12.9635C5.25523 13.0555 5.23318 13.1548 5.23141 13.2555C5.22963 13.3562 5.24816 13.4562 5.28588 13.5496C5.3236 13.643 5.37974 13.7278 5.45096 13.799C5.52218 13.8703 5.60701 13.9264 5.7004 13.9641C5.79379 14.0018 5.89382 14.0204 5.99452 14.0186C6.09522 14.0168 6.19454 13.9948 6.28654 13.9538C6.37854 13.9128 6.46134 13.8537 6.53 13.78L12.53 7.78ZM5.625 8C5.625 7.70163 5.74353 7.41549 5.9545 7.20451C6.16548 6.99353 6.45163 6.875 6.75 6.875C7.04837 6.875 7.33452 6.99353 7.5455 7.20451C7.75647 7.41549 7.875 7.70163 7.875 8C7.875 8.29837 7.75647 8.58452 7.5455 8.7955C7.33452 9.00648 7.04837 9.125 6.75 9.125C6.45163 9.125 6.16548 9.00648 5.9545 8.7955C5.74353 8.58452 5.625 8.29837 5.625 8ZM11.25 11.375C10.9516 11.375 10.6655 11.4935 10.4545 11.7045C10.2435 11.9155 10.125 12.2016 10.125 12.5C10.125 12.7984 10.2435 13.0845 10.4545 13.2955C10.6655 13.5065 10.9516 13.625 11.25 13.625C11.5484 13.625 11.8345 13.5065 12.0455 13.2955C12.2565 13.0845 12.375 12.7984 12.375 12.5C12.375 12.2016 12.2565 11.9155 12.0455 11.7045C11.8345 11.4935 11.5484 11.375 11.25 11.375Z" fill="#7A89A8"/>
</svg>
